<svg width="64" height="64" viewBox="0 0 64 64" fill="none" xmlns="http://www.w3.org/2000/svg">
<g id="icon_medium">
<path id="back" fill-rule="evenodd" clip-rule="evenodd" d="M2 32C2 15.4315 15.4315 2 32 2C48.5685 2 62 15.4315 62 32C62 48.5685 48.5685 62 32 62C15.4315 62 2 48.5685 2 32Z" fill="white" stroke="#979797" stroke-opacity="0.110875"/>
<g id="Group">
<path id="Fill 6" fill-rule="evenodd" clip-rule="evenodd" d="M37.2769 19.0296C37.1246 18.9529 37 19.0304 37 19.2019V40.2935L46.1694 44.9112C46.6262 45.1413 47 44.9086 47 44.3941V24.0913C47 23.9901 46.9432 23.8976 46.8535 23.8524L37.2769 19.0296Z" fill="#32FC8D"/>
<path id="Fill 7" fill-rule="evenodd" clip-rule="evenodd" d="M27 35.0344L36.8849 19.158C36.9746 19.014 37.1732 18.9581 37.3262 19.0337L46.8747 23.7524C46.9936 23.8112 47.036 23.9581 46.9664 24.0701L37.0479 40L27 35.0344Z" fill="#0BE370"/>
<path id="Fill 9" fill-rule="evenodd" clip-rule="evenodd" d="M17.6491 19.1368C17.0252 18.8298 16.8137 19.057 17.1794 19.6418L26.7574 34.9597L37 40L26.8235 23.7249C26.7803 23.6556 26.7181 23.5997 26.6444 23.5633L17.6491 19.1368Z" fill="#14C767"/>
<path id="Fill 10" fill-rule="evenodd" clip-rule="evenodd" d="M27 44.3915C27 44.9082 26.6261 45.1419 26.1693 44.9108L17.5539 40.5536C17.2492 40.3995 17 39.9917 17 39.6472V19.4057C17 19.0612 17.2492 18.9054 17.5539 19.0595L26.8767 23.7745C26.9522 23.8127 27 23.8908 27 23.9763V44.3915Z" fill="#00AB6C"/>
</g>
</g>
</svg>
