<svg width="111" height="20" viewBox="0 0 111 20" xmlns="http://www.w3.org/2000/svg">
  <g id="img_logo">
    <path id="Combined Shape" fill-rule="evenodd" clip-rule="evenodd" d="M0 0H3.27687H6.55374H9.83061H13.1075H16.3843H19.6612V3.27111V6.54222V9.81333V13.0844V16.3556V19.6267H16.3843H13.1075H9.83061H6.55374V16.3556H9.83061H13.1075L16.3843 16.3556V13.0844V9.81333V6.54222V3.27111H13.1075H9.83061H6.55374H3.27687V6.54222V9.81333V13.0844H0V9.81333V6.54222V3.27111V0ZM3.27687 16.3556H0V19.6267H3.27687V16.3556ZM6.55374 13.0844V9.81333V6.54222H9.83061H13.1075V9.81333V13.0844H9.83061H6.55374Z" fill="#FF9532"/>
    <g id="Group">
      <path id="Combined Shape_2" fill-rule="evenodd" clip-rule="evenodd" d="M31.123 5.41795C30.3754 4.74999 29.3197 4.41602 27.9558 4.41602H24.5765V15.5051H26.7738V11.9945H28.3498C29.2692 11.9945 30.0193 11.8087 30.6002 11.4371C31.1811 11.0654 31.6003 10.5908 31.858 10.0133C32.1156 9.43572 32.2444 8.81549 32.2444 8.15255C32.2444 6.99743 31.8706 6.08591 31.123 5.41795ZM29.3348 9.59142C29.0823 9.77724 28.7489 9.87015 28.3347 9.87015H26.7738V6.52535H28.3498C29.0166 6.52535 29.4662 6.70866 29.6985 7.07528C29.9309 7.44191 30.0471 7.82108 30.0471 8.21282C30.0471 8.44384 29.9915 8.6849 29.8804 8.93602C29.7692 9.18713 29.5874 9.40559 29.3348 9.59142Z" fill="black"/>
      <path id="Path" fill-rule="evenodd" clip-rule="evenodd" d="M36.6135 4.41602V13.3957H41.8784V15.5051H34.4071V4.41602H36.6135Z" fill="black"/>
      <path id="Combined Shape_3" fill-rule="evenodd" clip-rule="evenodd" d="M47.0016 13.3438H50.6781L51.537 15.505H54.0683L49.0658 4.02344H48.9453L43.9428 15.505H46.0975L47.0016 13.3438ZM48.885 8.8262L49.9548 11.5127H47.77L48.885 8.8262Z" fill="black"/>
      <path id="Path_2" fill-rule="evenodd" clip-rule="evenodd" d="M64.2921 4.41602L60.136 12.0548V15.5051H57.9525V12.0548L53.8717 4.41602H56.5672L59.112 9.53868L61.5967 4.41602H64.2921Z" fill="black"/>
      <path id="Path_3" fill-rule="evenodd" clip-rule="evenodd" d="M74.8109 14.3726C74.6408 14.5527 74.3382 14.7403 73.903 14.9354C73.4678 15.1305 72.9877 15.2906 72.4624 15.4156C71.9372 15.5407 71.4595 15.6032 71.0293 15.6032C69.8588 15.6032 68.8309 15.3756 67.9456 14.9204C67.0602 14.4652 66.3774 13.8349 65.8972 13.0295C65.417 12.2241 65.1769 11.3062 65.1769 10.2757C65.1769 8.98507 65.432 7.89206 65.9422 6.99664C66.4524 6.10121 67.1377 5.4309 67.9981 4.98569C68.8584 4.54047 69.8088 4.31787 70.8493 4.31787C71.5195 4.31787 72.1498 4.39291 72.74 4.54298C73.3303 4.69305 73.8505 4.88814 74.3007 5.12825L73.5954 7.15421C73.3053 6.99414 72.9076 6.84657 72.4024 6.7115C71.8972 6.57644 71.4745 6.50891 71.1344 6.50891C69.9339 6.50891 69.016 6.80905 68.3807 7.40933C67.7455 8.00962 67.4278 8.90003 67.4278 10.0806C67.4278 10.7609 67.5829 11.3537 67.893 11.8589C68.2032 12.3642 68.6358 12.7519 69.1911 13.022C69.7463 13.2921 70.3791 13.4272 71.0894 13.4272C71.7696 13.4272 72.2749 13.3321 72.605 13.142V11.8064H70.6992V9.70542H74.8109V14.3726Z" fill="#FF9532"/>
      <path id="Combined Shape_4" fill-rule="evenodd" clip-rule="evenodd" d="M79.9341 13.3438H83.6106L84.4695 15.505H87.0009L81.9984 4.02344H81.8778L76.8753 15.505H79.03L79.9341 13.3438ZM81.8176 8.8262L82.8874 11.5127H80.7025L81.8176 8.8262Z" fill="#FF9532"/>
      <path id="Path_4" fill-rule="evenodd" clip-rule="evenodd" d="M100.37 4.02344V15.505H98.1891V10.2439L94.5785 15.3551H94.5484L91.0732 10.5736V15.505H88.967V4.02344H88.982L94.5935 11.9526L100.34 4.02344H100.37Z" fill="#FF9532"/>
      <path id="Path_5" fill-rule="evenodd" clip-rule="evenodd" d="M109.695 4.41602V6.52535H104.322V8.89082H109.078V11.0001H104.322V13.3957H109.906V15.5051H102.14V4.41602H109.695Z" fill="#FF9532"/>
    </g>
  </g>
</svg>
