<svg width="62" height="60" viewBox="0 0 62 60" fill="none" xmlns="http://www.w3.org/2000/svg">
<g id="icon_youtube">
<path id="back" fill-rule="evenodd" clip-rule="evenodd" d="M0 30C0 13.4315 13.6714 0 30.5359 0C47.4004 0 61.0717 13.4315 61.0717 30C61.0717 46.5685 47.4004 60 30.5359 60C13.6714 60 0 46.5685 0 30Z" fill="#CE1312"/>
<path id="Youtube" fill-rule="evenodd" clip-rule="evenodd" d="M46.4288 23.9613C46.4288 23.9613 46.1107 21.708 45.136 20.7158C43.899 19.4128 42.5127 19.4067 41.8774 19.3311C37.326 19 30.4989 19 30.4989 19H30.4847C30.4847 19 23.6576 19 19.1061 19.3311C18.4699 19.4067 17.0845 19.4128 15.8466 20.7158C14.8719 21.708 14.5547 23.9613 14.5547 23.9613C14.5547 23.9613 14.2295 26.6081 14.2295 29.2538V31.735C14.2295 34.3817 14.5547 37.0274 14.5547 37.0274C14.5547 37.0274 14.8719 39.2807 15.8466 40.273C17.0845 41.5759 18.7098 41.535 19.4334 41.6709C22.0354 41.9223 30.4918 42 30.4918 42C30.4918 42 37.326 41.9898 41.8774 41.6587C42.5127 41.582 43.899 41.5759 45.136 40.273C46.1107 39.2807 46.4288 37.0274 46.4288 37.0274C46.4288 37.0274 46.7541 34.3817 46.7541 31.735V29.2538C46.7541 26.6081 46.4288 23.9613 46.4288 23.9613Z" fill="white"/>
<path id="Path" fill-rule="evenodd" clip-rule="evenodd" d="M27.1336 34.7414L27.1326 25.5535L35.9204 30.1633L27.1336 34.7414Z" fill="#CE1312"/>
</g>
</svg>
