<svg width="18" height="13" viewBox="0 0 18 13" fill="none" xmlns="http://www.w3.org/2000/svg">
<g id="icon_mail">
<path id="Shape" d="M17.8529 1.59344L13.1971 6.54066C13.1625 6.57677 13.1625 6.63094 13.1971 6.66705L16.4553 10.2872C16.676 10.5174 16.676 10.8875 16.4553 11.1177C16.3471 11.2306 16.2 11.2893 16.0572 11.2893C15.9144 11.2893 15.7673 11.2306 15.6591 11.1177L12.4139 7.51114C12.3793 7.47503 12.3231 7.47503 12.2885 7.51114L11.4966 8.35073C10.8346 9.05038 9.95625 9.43857 9.01298 9.44309C8.05673 9.4476 7.14808 9.02781 6.4774 8.31913L5.71587 7.51114C5.68125 7.47503 5.625 7.47503 5.59038 7.51114L2.34519 11.1177C2.23702 11.2306 2.0899 11.2893 1.94712 11.2893C1.80433 11.2893 1.65721 11.2306 1.54904 11.1177C1.32837 10.8875 1.32837 10.5174 1.54904 10.2872L4.80721 6.66705C4.8375 6.63094 4.8375 6.57677 4.80721 6.54066L0.147115 1.59344C0.0908654 1.53475 0 1.57538 0 1.65663V11.5556C0 12.35 0.623077 13 1.38462 13H16.6154C17.3769 13 18 12.35 18 11.5556V1.65663C18 1.57538 17.9048 1.53927 17.8529 1.59344Z" fill="black"/>
<path id="Shape_2" d="M9 8.26493C9.64039 8.26493 10.2418 8.00313 10.6918 7.52465L17.4808 0.315972C17.2428 0.117361 16.9486 0 16.624 0H1.38029C1.05577 0 0.757213 0.117361 0.52356 0.315972L7.3125 7.52465C7.75817 7.99861 8.35962 8.26493 9 8.26493Z" fill="black"/>
</g>
</svg>
