<svg width="52" height="44" viewBox="0 0 52 44" fill="none" xmlns="http://www.w3.org/2000/svg">
<path opacity="0.0991629" d="M51.3945 0.613281V7.9375C48.582 8.67969 46.4336 9.73438 44.9492 11.1016C43.5039 12.4687 42.332 14.2266 41.4336 16.375C40.5742 18.4844 40.1445 21.0625 40.1445 24.1094C43.7383 24.1094 46.3945 25.1445 48.1133 27.2148C49.8711 29.2461 50.75 31.4141 50.75 33.7188C50.75 36.4531 49.793 38.7578 47.8789 40.6328C45.9648 42.4688 43.7383 43.3867 41.1992 43.3867C37.8789 43.3867 35.0273 41.9805 32.6445 39.168C30.3008 36.3164 29.1289 32.4297 29.1289 27.5078C29.1289 23.1719 30.0664 19.1094 31.9414 15.3203C33.8164 11.5312 36.3555 8.28906 39.5586 5.59375C42.8008 2.89844 46.7461 1.23828 51.3945 0.613281ZM22.7422 0.613281V7.9375C19.9297 8.67969 17.7812 9.73438 16.2969 11.1016C14.8516 12.4687 13.6797 14.2266 12.7812 16.375C11.9219 18.4844 11.4922 21.0625 11.4922 24.1094C15.125 24.1094 17.8008 25.1445 19.5195 27.2148C21.2383 29.2461 22.0977 31.4141 22.0977 33.7188C22.0977 36.4531 21.1406 38.7578 19.2266 40.6328C17.3125 42.4688 15.0859 43.3867 12.5469 43.3867C9.26562 43.3867 6.43359 41.9805 4.05078 39.168C1.66797 36.3164 0.476562 32.4297 0.476562 27.5078C0.476562 23.1719 1.41406 19.1094 3.28906 15.3203C5.16406 11.5312 7.70312 8.28906 10.9062 5.59375C14.1484 2.89844 18.0938 1.23828 22.7422 0.613281Z" fill="#4A4A4A"/>
</svg>
